<?xml version="1.0" encoding="UTF-8" standalone="no"?>
<!-- Created with Inkscape (http://www.inkscape.org/) -->

<svg
   xmlns:dc="http://purl.org/dc/elements/1.1/"
   xmlns:cc="http://creativecommons.org/ns#"
   xmlns:rdf="http://www.w3.org/1999/02/22-rdf-syntax-ns#"
   xmlns:svg="http://www.w3.org/2000/svg"
   xmlns="http://www.w3.org/2000/svg"
   xmlns:sodipodi="http://sodipodi.sourceforge.net/DTD/sodipodi-0.dtd"
   xmlns:inkscape="http://www.inkscape.org/namespaces/inkscape"
   version="1.1"
   id="svg2"
   xml:space="preserve"
   width="403.28131"
   height="482.60681"
   viewBox="0 0 403.28131 482.60681"
   sodipodi:docname="VISIUM TEXT BOTTOM.svg"
   inkscape:version="0.92.3 (2405546, 2018-03-11)"><metadata
     id="metadata8"><rdf:RDF><cc:Work
         rdf:about=""><dc:format>image/svg+xml</dc:format><dc:type
           rdf:resource="http://purl.org/dc/dcmitype/StillImage" /><dc:title></dc:title></cc:Work></rdf:RDF></metadata><defs
     id="defs6" /><sodipodi:namedview
     pagecolor="#ffffff"
     bordercolor="#666666"
     borderopacity="1"
     objecttolerance="10"
     gridtolerance="10"
     guidetolerance="10"
     inkscape:pageopacity="0"
     inkscape:pageshadow="2"
     inkscape:window-width="2560"
     inkscape:window-height="1391"
     id="namedview4"
     showgrid="false"
     fit-margin-top="0"
     fit-margin-left="0"
     fit-margin-right="0"
     fit-margin-bottom="0"
     inkscape:zoom="0.26004191"
     inkscape:cx="799.87106"
     inkscape:cy="241.53615"
     inkscape:window-x="0"
     inkscape:window-y="25"
     inkscape:window-maximized="1"
     inkscape:current-layer="g12" /><g
     id="g10"
     inkscape:groupmode="layer"
     inkscape:label="ink_ext_XXXXXX"
     transform="matrix(1.3333333,0,0,-1.3333333,0,487.79065)"><g
       id="g12"
       transform="scale(0.1)"><path
         d="m 1910.54,2397.46 c -52.23,0 -94.73,-42.5 -94.73,-94.72 0,-52.24 42.5,-94.74 94.73,-94.74 52.23,0 94.73,42.5 94.73,94.74 0,52.22 -42.5,94.72 -94.73,94.72 z m 0,-291.11 c -108.28,0 -196.39,88.1 -196.39,196.39 0,108.28 88.11,196.37 196.39,196.37 108.28,0 196.38,-88.09 196.38,-196.37 0,-108.29 -88.1,-196.39 -196.38,-196.39"
         style="fill:#2f5eb3;fill-opacity:1;fill-rule:nonzero;stroke:none"
         id="path14"
         inkscape:connector-curvature="0" /><path
         d="m 1512.29,2079.32 c -52.22,0 -94.72,-42.5 -94.72,-94.74 0,-52.22 42.5,-94.72 94.72,-94.72 52.24,0 94.74,42.5 94.74,94.72 0,52.24 -42.5,94.74 -94.74,94.74 z m 0,-291.11 c -108.27,0 -196.37,88.1 -196.37,196.37 0,108.29 88.1,196.39 196.37,196.39 108.29,0 196.39,-88.1 196.39,-196.39 0,-108.27 -88.1,-196.37 -196.39,-196.37"
         style="fill:#192948;fill-opacity:1;fill-rule:nonzero;stroke:none"
         id="path16"
         inkscape:connector-curvature="0" /><path
         d="m 1512.29,2718.32 c -52.22,0 -94.72,-42.5 -94.72,-94.72 0,-52.24 42.5,-94.74 94.72,-94.74 52.24,0 94.74,42.5 94.74,94.74 0,52.22 -42.5,94.72 -94.74,94.72 z m 0,-291.11 c -108.27,0 -196.37,88.1 -196.37,196.39 0,108.27 88.1,196.38 196.37,196.38 108.29,0 196.39,-88.11 196.39,-196.38 0,-108.29 -88.1,-196.39 -196.39,-196.39"
         style="fill:#89d7cc;fill-opacity:1;fill-rule:nonzero;stroke:none"
         id="path18"
         inkscape:connector-curvature="0" /><path
         d="m 1512.29,1340.2 c -52.22,0 -94.72,-42.5 -94.72,-94.73 0,-52.23 42.5,-94.73 94.72,-94.73 52.24,0 94.74,42.5 94.74,94.73 0,52.23 -42.5,94.73 -94.74,94.73 z m 0,-291.11 c -108.27,0 -196.37,88.1 -196.37,196.38 0,108.28 88.1,196.38 196.37,196.38 108.29,0 196.39,-88.1 196.39,-196.38 0,-108.28 -88.1,-196.38 -196.39,-196.38"
         style="fill:#f7df5f;fill-opacity:1;fill-rule:nonzero;stroke:none"
         id="path20"
         inkscape:connector-curvature="0" /><path
         d="m 1786.92,3095.42 c -6.74,0 -13.54,-0.74 -20.22,-2.19 -51.04,-11.07 -83.57,-61.6 -72.5,-112.65 10.81,-49.88 62.16,-83.46 112.66,-72.51 51.05,11.07 83.57,61.61 72.5,112.66 -9.38,43.28 -48.25,74.69 -92.44,74.69 z m -0.27,-291.18 c -91.68,0 -172.33,65.1 -191.79,154.8 -22.94,105.82 44.49,210.58 150.3,233.54 13.74,2.97 27.8,4.49 41.76,4.49 91.67,0 172.33,-65.1 191.78,-154.8 22.95,-105.82 -44.48,-210.58 -150.3,-233.54 -13.75,-2.98 -27.8,-4.49 -41.75,-4.49"
         style="fill:#f7df5f;fill-opacity:1;fill-rule:nonzero;stroke:none"
         id="path22"
         inkscape:connector-curvature="0" /><path
         d="m 2346.12,1966.29 -93.36,40.23 337.25,782.74 93.36,-40.22 -337.25,-782.75"
         style="fill:#192948;fill-opacity:1;fill-rule:nonzero;stroke:none"
         id="path24"
         inkscape:connector-curvature="0" /><path
         d="m 2296.66,1955.48 c -52.23,0 -94.73,-42.49 -94.73,-94.73 0,-52.23 42.5,-94.73 94.73,-94.73 52.24,0 94.74,42.5 94.74,94.73 0,52.24 -42.5,94.73 -94.74,94.73 z m 0,-291.11 c -108.28,0 -196.37,88.1 -196.37,196.38 0,108.29 88.09,196.38 196.37,196.38 108.29,0 196.39,-88.09 196.39,-196.38 0,-108.28 -88.1,-196.38 -196.39,-196.38"
         style="fill:#192948;fill-opacity:1;fill-rule:nonzero;stroke:none"
         id="path26"
         inkscape:connector-curvature="0" /><path
         d="m 1858.22,1731.29 c -52.24,0 -94.74,-42.5 -94.74,-94.73 0,-52.24 42.5,-94.74 94.74,-94.74 52.23,0 94.72,42.5 94.72,94.74 0,52.23 -42.49,94.73 -94.72,94.73 z m 0,-291.12 c -108.29,0 -196.39,88.1 -196.39,196.39 0,108.28 88.1,196.38 196.39,196.38 108.27,0 196.37,-88.1 196.37,-196.38 0,-108.29 -88.1,-196.39 -196.37,-196.39"
         style="fill:#89d7cc;fill-opacity:1;fill-rule:nonzero;stroke:none"
         id="path28"
         inkscape:connector-curvature="0" /><path
         d="m 2082.07,2750.43 c -67.11,0 -148.97,27.69 -233.15,113.7 l 72.64,71.1 c 130.64,-133.43 222.62,-68.71 232.68,-60.87 l 251.62,185.63 60.33,-81.79 -248.99,-183.65 c -27.6,-22.29 -75.56,-44.12 -135.13,-44.12"
         style="fill:#f7df5f;fill-opacity:1;fill-rule:nonzero;stroke:none"
         id="path30"
         inkscape:connector-curvature="0" /><path
         d="m 2270.68,1089.42 -353.45,166.51 c -15.86,6.63 -102.58,46.16 -137.07,130.04 -19.68,47.85 -17.92,101.27 5.08,154.51 l 93.32,-40.33 c -12.15,-28.13 -13.64,-52.7 -4.56,-75.13 16.47,-40.6 65.47,-68.28 82.97,-75.53 l 2.45,-1.08 354.59,-167.04 -43.33,-91.95"
         style="fill:#89d7cc;fill-opacity:1;fill-rule:nonzero;stroke:none"
         id="path32"
         inkscape:connector-curvature="0" /><path
         d="m 2069.5,2331.63 -61.8,80.7 521.89,399.56 61.8,-80.7 -521.89,-399.56"
         style="fill:#2f5eb3;fill-opacity:1;fill-rule:nonzero;stroke:none"
         id="path34"
         inkscape:connector-curvature="0" /><path
         d="m 1130.29,2397.46 c -52.23,0 -94.73,-42.5 -94.73,-94.72 0,-52.24 42.5,-94.74 94.73,-94.74 52.24,0 94.73,42.5 94.73,94.74 0,52.22 -42.49,94.72 -94.73,94.72 z m 0,-291.11 c -108.28,0 -196.38,88.1 -196.38,196.39 0,108.28 88.1,196.37 196.38,196.37 108.29,0 196.38,-88.09 196.38,-196.37 0,-108.29 -88.09,-196.39 -196.38,-196.39"
         style="fill:#2f5eb3;fill-opacity:1;fill-rule:nonzero;stroke:none"
         id="path36"
         inkscape:connector-curvature="0" /><path
         d="m 1253.91,3095.42 c -44.19,0 -83.06,-31.41 -92.44,-74.69 -5.36,-24.73 -0.77,-50.07 12.91,-71.35 13.71,-21.27 34.87,-35.95 59.6,-41.31 50.53,-11.03 101.85,22.61 112.65,72.51 11.07,51.05 -21.46,101.58 -72.51,112.65 -6.67,1.45 -13.47,2.19 -20.21,2.19 z m 0.3,-291.18 h -0.01 c -13.98,0 -28.02,1.51 -41.76,4.49 -51.27,11.12 -95.13,41.53 -123.52,85.63 -28.4,44.12 -37.91,96.64 -26.79,147.91 19.45,89.7 100.11,154.8 191.78,154.8 13.96,0 28.02,-1.52 41.75,-4.49 105.82,-22.95 173.25,-127.71 150.31,-233.54 -19.43,-89.69 -100.09,-154.8 -191.76,-154.8"
         style="fill:#f7df5f;fill-opacity:1;fill-rule:nonzero;stroke:none"
         id="path38"
         inkscape:connector-curvature="0" /><path
         d="m 694.723,1966.29 -337.262,782.75 93.359,40.22 337.262,-782.74 -93.359,-40.23"
         style="fill:#192948;fill-opacity:1;fill-rule:nonzero;stroke:none"
         id="path40"
         inkscape:connector-curvature="0" /><path
         d="m 744.168,1955.48 c -52.238,0 -94.738,-42.49 -94.738,-94.73 0,-52.23 42.5,-94.73 94.738,-94.73 52.23,0 94.727,42.5 94.727,94.73 0,52.24 -42.497,94.73 -94.727,94.73 z m 0,-291.11 c -108.289,0 -196.387,88.1 -196.387,196.38 0,108.29 88.098,196.38 196.387,196.38 108.277,0 196.379,-88.09 196.379,-196.38 0,-108.28 -88.102,-196.38 -196.379,-196.38"
         style="fill:#192948;fill-opacity:1;fill-rule:nonzero;stroke:none"
         id="path42"
         inkscape:connector-curvature="0" /><path
         d="m 1182.61,1731.29 c -52.23,0 -94.73,-42.5 -94.73,-94.73 0,-52.24 42.5,-94.74 94.73,-94.74 52.24,0 94.74,42.5 94.74,94.74 0,52.23 -42.5,94.73 -94.74,94.73 z m 0,-291.12 c -108.27,0 -196.376,88.1 -196.376,196.39 0,108.28 88.106,196.38 196.376,196.38 108.29,0 196.39,-88.1 196.39,-196.38 0,-108.29 -88.1,-196.39 -196.39,-196.39"
         style="fill:#89d7cc;fill-opacity:1;fill-rule:nonzero;stroke:none"
         id="path44"
         inkscape:connector-curvature="0" /><path
         d="m 958.762,2750.43 c -59.582,0 -107.52,21.82 -135.129,44.11 l -248.977,183.66 60.332,81.79 252.153,-186.08 c 9.504,-7.38 101.511,-72.11 232.129,61.32 l 72.63,-71.1 c -84.15,-86 -166.03,-113.7 -233.138,-113.7"
         style="fill:#f7df5f;fill-opacity:1;fill-rule:nonzero;stroke:none"
         id="path46"
         inkscape:connector-curvature="0" /><path
         d="m 770.152,1089.42 -43.332,91.95 357.28,168.22 c 17.26,7.15 66.26,34.83 82.73,75.43 9.08,22.43 7.59,47 -4.56,75.13 l 93.32,40.33 c 23,-53.24 24.76,-106.66 5.08,-154.51 -34.49,-83.88 -121.21,-123.41 -137.07,-130.04 L 770.152,1089.42"
         style="fill:#89d7cc;fill-opacity:1;fill-rule:nonzero;stroke:none"
         id="path48"
         inkscape:connector-curvature="0" /><path
         d="m 971.332,2331.63 -521.891,399.56 61.793,80.7 521.896,-399.56 -61.798,-80.7"
         style="fill:#2f5eb3;fill-opacity:1;fill-rule:nonzero;stroke:none"
         id="path50"
         inkscape:connector-curvature="0" /><path
         d="m 1512.29,3346.89 c -662.102,0 -1200.759,-538.66 -1200.759,-1200.76 0,-662.11 538.657,-1200.771 1200.759,-1200.771 662.11,0 1200.78,538.661 1200.78,1200.771 0,662.1 -538.67,1200.76 -1200.78,1200.76 z m 0,-2554.011 c -746.173,0 -1353.231,607.061 -1353.231,1353.251 0,746.17 607.058,1353.24 1353.231,1353.24 746.19,0 1353.25,-607.07 1353.25,-1353.24 0,-746.19 -607.06,-1353.251 -1353.25,-1353.251"
         style="fill:#2f5eb3;fill-opacity:1;fill-rule:nonzero;stroke:none"
         id="path52"
         inkscape:connector-curvature="0" /><path
         d="M 1512.29,3620.6 C 699.258,3620.6 37.8203,2959.15 37.8203,2146.12 37.8203,1333.09 699.258,671.641 1512.29,671.641 c 813.05,0 1474.5,661.449 1474.5,1474.479 0,813.03 -661.45,1474.48 -1474.5,1474.48 z m 0,-2986.78 C 678.406,633.82 0,1312.22 0,2146.12 c 0,833.9 678.406,1512.31 1512.29,1512.31 833.89,0 1512.32,-678.41 1512.32,-1512.31 0,-833.9 -678.43,-1512.3 -1512.32,-1512.3"
         style="fill:#192948;fill-opacity:1;fill-rule:nonzero;stroke:none"
         id="path54"
         inkscape:connector-curvature="0" /><path
         d="m 222.875,176.621 11.277,-41.351 h 2.051 L 247.484,176.621 376,543.711 h 72.801 L 263.891,46.0586 H 206.125 L 21.2148,543.711 H 94.3594 L 222.875,176.621"
         style="fill:#192948;fill-opacity:1;fill-rule:nonzero;stroke:none"
         id="path56"
         inkscape:connector-curvature="0" /><path
         d="M 728.938,46.0586 H 661.262 V 543.711 h 67.676 V 46.0586"
         style="fill:#192948;fill-opacity:1;fill-rule:nonzero;stroke:none"
         id="path58"
         inkscape:connector-curvature="0" /><path
         d="m 1257.56,171.5 c 0,22.551 -8.09,41.461 -24.27,56.73 -16.18,15.27 -44.66,28.258 -85.45,38.969 -50.58,12.531 -90.06,30.992 -118.43,55.371 -28.37,24.379 -42.551,55.032 -42.551,91.942 0,38.968 15.261,71.437 45.801,97.418 30.53,25.968 70.18,38.961 118.94,38.961 52.41,0 94.17,-14.871 125.28,-44.602 31.09,-29.738 46.19,-64.43 45.28,-104.078 l -1.02,-2.051 h -64.26 c 0,28.25 -9.86,51.61 -29.57,70.07 -19.71,18.45 -44.94,27.68 -75.71,27.68 -31.44,0 -55.54,-7.629 -72.29,-22.898 -16.74,-15.274 -25.12,-35.094 -25.12,-59.473 0,-21.648 9.17,-39.711 27.52,-54.18 18.34,-14.468 48.13,-27.168 89.38,-38.109 50.12,-12.98 88.3,-32.121 114.5,-57.422 26.2,-25.289 39.31,-56.508 39.31,-93.648 0,-40.11 -15.79,-72.348 -47.34,-96.7308 -31.57,-24.3789 -72.75,-36.5703 -123.56,-36.5703 -48.08,0 -90.53,13.4414 -127.32,40.332 -36.805,26.8911 -54.637,62.8911 -53.492,108.0081 l 0.683,2.051 h 64.259 c 0,-31.219 11.84,-55.321 35.54,-72.301 23.7,-16.969 50.47,-25.4495 80.33,-25.4495 31.9,0 57.13,7.1719 75.71,21.5315 18.56,14.347 27.85,33.84 27.85,58.449"
         style="fill:#192948;fill-opacity:1;fill-rule:nonzero;stroke:none"
         id="path60"
         inkscape:connector-curvature="0" /><path
         d="m 1634.76,46.0586 h -67.67 V 543.711 h 67.67 V 46.0586"
         style="fill:#192948;fill-opacity:1;fill-rule:nonzero;stroke:none"
         id="path62"
         inkscape:connector-curvature="0" /><path
         d="M 2265.25,543.711 V 213.199 c 0,-54.687 -17.77,-97.418 -53.32,-128.1795 -35.55,-30.7578 -81.35,-46.1406 -137.4,-46.1406 -54,0 -98.22,15.4297 -132.62,46.3203 -34.41,30.8708 -51.62,73.5308 -51.62,127.9998 v 330.512 h 67.34 V 213.199 c 0,-38.058 10.88,-67.847 32.64,-89.39 21.76,-21.52 49.85,-32.2895 84.26,-32.2895 36.44,0 66.13,10.7695 89.04,32.2895 22.89,21.543 34.34,51.332 34.34,89.39 v 330.512 h 67.34"
         style="fill:#192948;fill-opacity:1;fill-rule:nonzero;stroke:none"
         id="path64"
         inkscape:connector-curvature="0" /><path
         d="m 2758.67,139.371 h 2.05 l 158.93,404.34 h 83.75 V 46.0586 h -67.35 V 418.961 l -2.05,0.34 -150.72,-373.2424 h -46.84 l -155.17,385.5434 -2.05,-0.34 V 46.0586 h -67.33 V 543.711 h 88.52 l 158.26,-404.34"
         style="fill:#192948;fill-opacity:1;fill-rule:nonzero;stroke:none"
         id="path66"
         inkscape:connector-curvature="0" /></g></g></svg>